<svg width="10878" height="4785" viewBox="0 0 10878 4785" fill="none" xmlns="http://www.w3.org/2000/svg">
<path opacity="0.0714286" d="M10450 487.922C9918.14 565.042 9174.98 535.413 9088.1 685.4C9001.22 835.388 9958.24 1079.77 9843.82 1207.65C9703.89 1364.04 7305.58 1020.4 6946.66 1248.68C6697.95 1406.85 6828.71 1967.89 6547.9 2170.2C6330.41 2326.89 5902.02 2345.83 5603.67 2524.53C5236.38 2744.53 5516.79 3125.36 5197.23 3242.84C4917.51 3389.55 3765.82 2895.35 3158.73 3156.16C2784.68 3316.86 2779.22 3790.34 2312.99 3983.9C2143.4 4054.31 1867.67 3975.26 1643.85 4026.01C1254.13 4114.37 985.882 4551.82 431.202 4751.19" stroke="black"/>
<path opacity="0.142857" d="M10388.6 460.74C9863.78 532.931 9131.04 492.105 9044.8 645.596C8958.55 799.087 9901.38 1064.36 9788.06 1194.67C9649.48 1354.03 7285.72 966.478 6930.9 1196.95C6685.05 1356.65 6811.87 1937.09 6534.18 2141.86C6319.11 2300.46 5896.59 2314.08 5601.69 2494.27C5238.66 2716.09 5513.74 3112.74 5198.16 3229.49C4921.77 3376.94 3787.92 2851.32 3188.25 3111.93C2818.78 3272.5 2811.6 3760.75 2351.1 3953.94C2183.59 4024.21 1911.98 3938.88 1691.07 3988.12C1306.42 4073.87 1040.23 4521.33 492.484 4719.3" stroke="black"/>
<path opacity="0.214286" d="M10327.5 432.328C9809.82 499.719 9087.62 447.876 9001.95 604.893C8916.27 761.91 9844.62 1047.84 9732.35 1180.61C9595.05 1342.97 7266.41 912.088 6915.65 1144.85C6672.59 1306.13 6795.14 1905.95 6520.52 2113.26C6307.81 2273.82 5891.22 2282.22 5599.73 2463.96C5240.9 2687.7 5510.4 3100.1 5198.79 3216.2C4925.68 3364.45 3810.13 2807.7 3217.84 3068.25C2852.92 3228.78 2843.76 3731.81 2388.96 3924.75C2223.53 3994.93 1956.13 3903.37 1738.14 3951.17C1358.57 4034.39 1094.24 4491.94 553.412 4688.63" stroke="black"/>
<path opacity="0.285714" d="M10266.7 402.692C9756.24 465.412 9044.74 402.734 8959.56 563.298C8874.39 723.862 9787.96 1030.21 9676.69 1165.47C9540.61 1330.87 7247.68 857.242 6900.89 1092.38C6660.59 1255.31 6778.54 1874.47 6506.91 2084.38C6296.53 2246.96 5885.92 2250.24 5597.79 2433.61C5243.09 2659.36 5506.75 3087.45 5199.11 3202.97C4929.25 3352.1 3832.45 2764.49 3247.5 3025.13C2887.1 3185.71 2875.7 3703.52 2426.57 3896.32C2263.2 3966.45 2000.1 3868.73 1785.04 3915.14C1410.57 3995.94 1147.91 4463.64 613.969 4659.19" stroke="black"/>
<path opacity="0.357143" d="M10206.4 371.838C9703.09 430.018 9002.4 356.687 8917.66 520.819C8832.91 684.95 9731.43 1011.49 9621.11 1149.26C9486.19 1317.74 7229.52 801.948 6886.64 1039.55C6649.04 1204.19 6762.07 1842.66 6493.37 2055.23C6285.26 2219.88 5880.69 2218.15 5595.87 2403.23C5245.24 2631.06 5502.81 3074.77 5199.11 3189.79C4932.47 3339.86 3854.87 2721.69 3277.22 2982.56C2921.31 3143.29 2907.41 3675.88 2463.92 3868.65C2302.6 3938.77 2043.88 3834.96 1831.75 3880.03C1462.39 3958.51 1201.2 4436.41 674.138 4630.96" stroke="black"/>
<path opacity="0.428571" d="M10146.4 339.772C9650.36 393.544 8960.62 309.745 8876.24 477.463C8791.86 645.181 9675.04 991.663 9565.61 1131.97C9431.78 1303.56 7211.94 746.213 6872.9 986.363C6637.96 1152.77 6745.74 1810.5 6479.9 2025.82C6274 2192.59 5875.53 2185.95 5593.97 2372.8C5247.35 2602.82 5498.57 3062.06 5198.8 3176.66C4935.34 3327.75 3877.39 2679.29 3306.98 2940.55C2955.53 3101.52 2938.89 3648.88 2500.99 3841.73C2341.71 3911.88 2087.46 3802.06 1878.28 3845.85C1514.04 3922.09 1254.12 4410.27 733.903 4603.94" stroke="black"/>
<path opacity="0.5" d="M10086.8 306.503C9598.07 355.996 8919.42 261.914 8835.33 433.238C8751.24 604.562 9618.81 970.746 9510.21 1113.62C9377.41 1288.35 7194.96 690.047 6859.68 932.83C6627.35 1101.06 6729.55 1778.02 6466.5 1996.14C6262.76 2165.08 5870.45 2153.65 5592.09 2342.33C5249.41 2574.62 5494.04 3049.33 5198.18 3163.59C4937.85 3315.74 3900.01 2637.31 3336.79 2899.1C2989.77 3060.4 2970.11 3622.52 2537.78 3815.57C2380.52 3885.79 2130.83 3770.02 1924.59 3812.58C1565.49 3886.69 1306.64 4385.19 793.246 4578.13" stroke="black"/>
<path opacity="0.571429" d="M10027.7 272.036C9546.24 317.382 8878.8 213.205 8794.93 388.152C8711.06 563.098 9562.74 948.738 9454.94 1094.21C9323.1 1272.1 7178.56 633.457 6846.97 878.958C6617.21 1049.07 6713.5 1745.2 6453.18 1966.19C6251.55 2137.35 5865.43 2121.23 5590.22 2311.83C5251.42 2546.47 5489.21 3036.56 5197.25 3150.55C4940.02 3303.85 3922.72 2595.74 3366.63 2858.2C3024.01 3019.92 3001.08 3596.79 2574.28 3790.15C2419.03 3860.48 2173.97 3738.84 1970.69 3780.22C1616.72 3852.29 1358.75 4361.18 852.153 4553.51" stroke="black"/>
<path opacity="0.642857" d="M9968.94 236.378C9494.89 277.709 8838.77 163.626 8755.06 342.212C8671.34 520.798 9506.86 925.643 9399.79 1073.73C9268.85 1254.82 7162.77 576.452 6834.8 824.753C6607.55 996.807 6697.6 1712.06 6439.93 1935.98C6240.35 2109.41 5860.5 2088.7 5588.38 2281.29C5253.39 2518.37 5484.08 3023.75 5196 3137.56C4941.83 3292.06 3945.51 2554.59 3396.5 2817.87C3058.24 2980.08 3031.78 3571.7 2610.47 3765.47C2457.22 3835.95 2216.88 3708.51 2016.56 3748.78C1667.74 3818.89 1410.44 4338.22 910.605 4530.09" stroke="black"/>
<path opacity="0.714286" d="M9910.68 199.538C9444.02 236.985 8799.35 113.185 8715.72 295.427C8632.09 477.668 9451.18 901.464 9344.78 1052.19C9214.68 1236.51 7147.58 519.041 6823.16 770.223C6598.36 944.273 6681.86 1678.59 6426.77 1905.5C6229.19 2081.26 5855.64 2056.07 5586.56 2250.7C5255.31 2490.31 5478.65 3010.9 5194.43 3124.59C4943.28 3280.37 3968.37 2513.84 3426.39 2778.08C3092.46 2940.89 3062.21 3547.23 2646.34 3741.52C2495.07 3812.2 2259.55 3679.02 2062.18 3718.23C1718.52 3786.5 1461.68 4316.3 968.588 4507.84" stroke="black"/>
<path opacity="0.785714" d="M9852.89 161.522C9393.65 195.217 8760.55 61.8934 8676.94 247.805C8593.32 433.716 9395.7 876.206 9289.94 1029.59C9160.6 1217.17 7133 461.231 6812.05 715.375C6589.66 891.478 6666.27 1644.8 6413.69 1874.77C6218.05 2052.89 5850.86 2023.33 5584.76 2220.08C5257.18 2462.3 5472.93 2998 5192.55 3111.66C4944.38 3268.77 3991.31 2473.51 3456.29 2738.86C3126.65 2902.34 3092.35 3523.37 2681.9 3718.31C2532.59 3789.22 2301.95 3650.39 2107.55 3688.59C1769.05 3755.1 1512.48 4295.44 1026.08 4486.76" stroke="black"/>
<path opacity="0.857143" d="M9795.58 122.338C9343.8 152.415 8722.39 9.75885 8638.72 199.354C8555.04 388.949 9340.46 849.873 9235.27 1005.94C9106.62 1196.8 7119.04 403.032 6801.49 660.217C6581.45 838.427 6650.84 1610.68 6400.7 1843.77C6206.95 2024.3 5846.16 1990.49 5582.99 2189.43C5259 2434.33 5466.92 2985.06 5190.35 3098.75C4945.11 3257.27 4014.31 2433.59 3486.2 2700.18C3160.81 2864.44 3122.2 3500.14 2717.11 3695.82C2569.76 3767 2344.09 3622.59 2152.65 3659.84C1819.31 3724.69 1562.81 4275.6 1083.08 4466.86" stroke="black"/>
<path opacity="0.928571" d="M9738.78 81.9951C9294.48 108.585 8684.87 -43.2088 8601.07 150.083C8517.26 343.374 9285.46 822.47 9180.78 981.244C9052.77 1175.41 7105.71 344.452 6791.47 604.756C6573.73 785.127 6635.59 1576.25 6387.8 1812.51C6195.88 1995.51 5841.54 1957.55 5581.23 2158.73C5260.78 2406.41 5460.61 2972.06 5187.83 3085.87C4945.49 3245.84 4037.38 2394.09 3516.1 2662.06C3194.93 2827.17 3151.76 3477.52 2751.98 3674.05C2606.57 3745.54 2385.94 3595.63 2197.47 3631.98C1869.3 3695.26 1612.65 4256.79 1139.56 4448.1" stroke="black"/>
<path d="M9682.5 40.5C9245.7 63.7362 8648 -97 8564 100C8480 297 9230.72 794 9126.5 955.5C8999.05 1153 7093 285.5 6782 549C6566.5 731.586 6620.5 1541.5 6375 1781C6184.85 1966.5 5837 1924.5 5579.5 2128C5262.5 2378.52 5454 2959 5185 3073C4945.5 3234.5 4060.5 2355 3546 2624.5C3229 2790.55 3181 3455.5 2786.5 3653C2643 3724.84 2427.5 3569.5 2242 3605C1919 3666.81 1662 4239 1195.5 4430.5" stroke="black"/>
</svg>
