<svg width="6601" height="3558" viewBox="0 0 6601 3558" fill="none" xmlns="http://www.w3.org/2000/svg">
<path opacity="0.0227273" d="M75.5002 0.5V3557.5" stroke="black"/>
<path opacity="0.0454545" d="M150.5 0.5V3557.5" stroke="black"/>
<path opacity="0.0681818" d="M225.5 0.5V3557.5" stroke="black"/>
<path opacity="0.0909091" d="M300.5 0.5V3557.5" stroke="black"/>
<path opacity="0.113636" d="M375.5 0.5V3557.5" stroke="black"/>
<path opacity="0.136364" d="M450.5 0.5V3557.5" stroke="black"/>
<path opacity="0.159091" d="M525.5 0.5V3557.5" stroke="black"/>
<path opacity="0.181818" d="M600.5 0.5V3557.5" stroke="black"/>
<path opacity="0.204545" d="M675.5 0.5V3557.5" stroke="black"/>
<path opacity="0.227273" d="M750.5 0.5V3557.5" stroke="black"/>
<path opacity="0.25" d="M825.5 0.5V3557.5" stroke="black"/>
<path opacity="0.272727" d="M900.5 0.5V3557.5" stroke="black"/>
<path opacity="0.295455" d="M975.5 0.5V3557.5" stroke="black"/>
<path opacity="0.318182" d="M1050.5 0.5V3557.5" stroke="black"/>
<path opacity="0.340909" d="M1125.5 0.5V3557.5" stroke="black"/>
<path opacity="0.363636" d="M1200.5 0.5V3557.5" stroke="black"/>
<path opacity="0.386364" d="M1275.5 0.5V3557.5" stroke="black"/>
<path opacity="0.409091" d="M1350.5 0.5V3557.5" stroke="black"/>
<path opacity="0.431818" d="M1425.5 0.5V3557.5" stroke="black"/>
<path opacity="0.454545" d="M1500.5 0.5V3557.5" stroke="black"/>
<path opacity="0.477273" d="M1575.5 0.5V3557.5" stroke="black"/>
<path opacity="0.5" d="M1650.5 0.5V3557.5" stroke="black"/>
<path opacity="0.522727" d="M1725.5 0.5V3557.5" stroke="black"/>
<path opacity="0.545455" d="M1800.5 0.5V3557.5" stroke="black"/>
<path opacity="0.568182" d="M1875.5 0.5V3557.5" stroke="black"/>
<path opacity="0.590909" d="M1950.5 0.5V3557.5" stroke="black"/>
<path opacity="0.613636" d="M2025.5 0.5V3557.5" stroke="black"/>
<path opacity="0.636364" d="M2100.5 0.5V3557.5" stroke="black"/>
<path opacity="0.659091" d="M2175.5 0.5V3557.5" stroke="black"/>
<path opacity="0.681818" d="M2250.5 0.5V3557.5" stroke="black"/>
<path opacity="0.704545" d="M2325.5 0.5V3557.5" stroke="black"/>
<path opacity="0.727273" d="M2400.5 0.5V3557.5" stroke="black"/>
<path opacity="0.75" d="M2475.5 0.5V3557.5" stroke="black"/>
<path opacity="0.772727" d="M2550.5 0.5V3557.5" stroke="black"/>
<path opacity="0.795455" d="M2625.5 0.5V3557.5" stroke="black"/>
<path opacity="0.818182" d="M2700.5 0.5V3557.5" stroke="black"/>
<path opacity="0.840909" d="M2775.5 0.5V3557.5" stroke="black"/>
<path opacity="0.863636" d="M2850.5 0.5V3557.5" stroke="black"/>
<path opacity="0.886364" d="M2925.5 0.5V3557.5" stroke="black"/>
<path opacity="0.909091" d="M3000.5 0.5V3557.5" stroke="black"/>
<path opacity="0.931818" d="M3075.5 0.5V3557.5" stroke="black"/>
<path opacity="0.954545" d="M3150.5 0.5V3557.5" stroke="black"/>
<path opacity="0.977273" d="M3225.5 0.5V3557.5" stroke="black"/>
<path d="M3300.5 0.5V3557.5" stroke="black"/>
</svg>
