<svg width="8303" height="1531" viewBox="0 0 8303 1531" fill="none" xmlns="http://www.w3.org/2000/svg">
<g opacity="0.928571">
<path opacity="0.0714286" d="M84.6318 1460.13C180.015 1449.29 382.788 1426.25 486.177 1414.51C589.566 1402.77 735.646 1386.2 877.051 1370.1C1018.46 1354.01 1066.61 1348.5 1195.85 1333.6C1325.09 1318.69 1774.02 1267.67 1956.89 1246.89C2562.54 1178.09 2660.84 1167.01 2659.27 1167.21C2651.28 1168.23 2016.28 1240.33 2016.29 1240.42C2016.3 1240.52 2409.18 1195.95 2591.95 1175.21C2774.72 1154.46 3102.89 1117.18 3429.05 1080.02C3766.61 1041.56 3957.29 1019.7 4313.84 979.226C4670.39 938.75 4869.23 917.036 5032.65 898.485C5196.07 879.933 5340.03 862.648 5432.08 852.198C5524.13 841.749 5470.81 848.164 5895.06 800.115C6670.17 712.327 8146.9 544.144 8222.93 535.461" stroke="black"/>
<path opacity="0.142857" d="M159.76 1420.69C253.335 1409.76 452.329 1387.08 553.88 1376.24C655.43 1365.4 798.999 1350.8 937.562 1333.28C1076.12 1315.76 1123.03 1307.51 1247.95 1277.3C1372.87 1247.1 1813.34 1196.08 1992.86 1176.16C2587.44 1110.15 2684.7 1105.69 2683.35 1107.38C2676.45 1116.01 2052.77 1182.94 2053.61 1189.73C2054.45 1196.52 2440.75 1158.66 2620.29 1139.73C2799.84 1120.81 3122.02 1085.12 3441.27 1041.8C3771.68 996.959 3957.09 961.478 4307.36 924.563C4657.62 887.648 4860.52 929.343 5021.06 912.423C5181.6 895.503 5314.72 812.253 5405.15 802.723C5495.58 793.192 5446.39 825.009 5864.14 789.19C6627.39 723.745 8073.31 531.44 8147.55 519.838" stroke="black"/>
<path opacity="0.214286" d="M236.065 1394.24C327.796 1382.81 522.948 1359.79 622.645 1349.77C722.343 1339.76 863.395 1327.27 999.032 1307.2C1134.67 1287.13 1180.25 1274.89 1300.43 1223.02C1420.62 1171.14 1852.46 1118.31 2028.6 1098.79C2611.96 1034.16 2708.3 1038.44 2707.2 1042.2C2701.57 1061.4 2089.34 1123.78 2091.16 1139.82C2092.98 1155.85 2472.72 1125.64 2649.03 1108.49C2825.33 1091.34 3141.44 1056.49 3453.52 1003.31C3776.51 948.279 3956.25 893.201 4300.19 859.743C4644.13 826.285 4852.55 954.769 5010.19 939.434C5167.83 924.099 5288.47 749.12 5377.27 740.482C5466.06 731.845 5421.65 798.976 5833.05 778.311C6584.7 740.556 7998.7 508.868 8071.05 492.921" stroke="black"/>
<path opacity="0.285714" d="M312.026 1369.05C401.93 1357.09 593.262 1333.67 691.099 1324.44C788.935 1315.21 927.443 1304.81 1060.21 1282.14C1192.98 1259.46 1237.31 1243.23 1353.18 1169.6C1469.05 1095.97 1892.35 1041.18 2065.1 1022.02C2637.26 958.584 2732.53 971.589 2731.64 977.422C2727.09 1007.2 2126.32 1065.22 2128.96 1090.52C2131.59 1115.83 2504.66 1093.16 2677.7 1077.73C2850.74 1062.3 3160.79 1028.18 3465.91 965.038C3781.7 899.684 3956.15 824.916 4293.73 794.811C4631.31 764.706 4843.62 980.066 4998.34 966.268C5153.07 952.469 5262.98 685.56 5350.13 677.788C5437.29 670.016 5396.96 772.538 5801.76 766.924C6541.35 756.666 7924.3 485.072 7994.85 464.749" stroke="black"/>
<path opacity="0.357143" d="M387.625 1345.11C475.72 1332.6 663.255 1308.71 759.224 1300.24C855.192 1291.77 991.127 1283.4 1121.09 1258.08C1251.05 1232.77 1294.21 1212.5 1406.19 1117.06C1518.17 1021.61 1932.99 964.71 2102.36 945.859C2663.34 883.424 2757.39 905.138 2756.67 913.048C2752.99 953.429 2163.73 1007.28 2167 1041.86C2170.26 1076.44 2536.54 1061.2 2706.3 1047.44C2876.07 1033.67 3180.07 1000.2 3478.44 926.97C3787.24 851.176 3956.81 756.631 4287.99 729.775C4619.17 702.918 4833.72 1005.22 4985.52 992.913C5137.31 980.604 5238.26 621.584 5323.76 614.65C5409.26 607.717 5372.34 745.699 5770.29 755.027C6497.35 772.07 7850.11 460.055 7918.95 435.327" stroke="black"/>
<path opacity="0.428571" d="M462.847 1322.43C549.149 1309.32 732.911 1284.91 827.005 1277.16C921.099 1269.42 1054.43 1263.05 1181.65 1235.04C1308.87 1207.03 1350.94 1182.72 1459.45 1065.38C1567.96 948.049 1974.37 888.907 2140.38 870.304C2690.21 808.692 2782.86 839.095 2782.27 849.084C2779.27 900.082 2201.54 949.946 2205.27 993.822C2208.99 1037.7 2568.37 1029.78 2734.84 1017.62C2901.3 1005.47 3199.26 972.542 3491.11 889.11C3793.15 802.762 3958.21 688.357 4282.96 664.643C4607.71 640.93 4822.87 1030.23 4971.72 1019.36C5120.56 1008.49 5214.3 557.2 5298.14 551.078C5381.98 544.956 5347.8 718.459 5738.64 742.619C6452.71 786.759 7776.16 433.823 7843.37 404.66" stroke="black"/>
<path opacity="0.5" d="M537.67 1300.98C622.199 1287.25 802.212 1262.25 894.425 1255.21C986.638 1248.16 1117.34 1243.75 1241.87 1212.99C1366.41 1182.24 1407.47 1153.87 1512.94 1014.59C1618.41 875.303 2016.48 813.779 2179.13 795.369C2717.84 734.396 2808.95 773.467 2808.45 785.538C2805.91 847.166 2239.76 893.236 2243.76 946.413C2247.77 999.591 2600.14 998.879 2763.29 988.281C2926.44 977.683 3218.38 945.201 3503.91 851.461C3799.42 754.444 3960.36 620.1 4278.64 599.425C4596.92 578.75 4811.07 1055.07 4956.95 1045.59C5102.83 1036.12 5191.11 492.418 5273.28 487.08C5355.45 481.743 5323.34 690.82 5706.81 729.696C6407.44 800.726 7702.47 406.378 7768.14 372.752" stroke="black"/>
<path opacity="0.571429" d="M612.079 1280.77C694.853 1266.39 871.143 1240.74 961.469 1234.36C1051.79 1227.99 1179.84 1225.48 1301.75 1191.95C1423.66 1158.41 1463.8 1125.95 1566.65 964.666C1669.5 803.378 2059.32 739.333 2218.62 721.061C2746.23 660.544 2835.64 708.261 2835.19 722.416C2832.92 794.685 2278.36 837.151 2282.48 899.637C2286.59 962.122 2631.84 968.505 2791.66 959.411C2951.47 950.316 3237.4 918.179 3516.83 814.024C3806.04 706.228 3963.27 551.871 4275.04 534.129C4586.82 516.387 4798.31 1079.74 4941.21 1071.6C5084.11 1063.47 5168.71 427.248 5249.2 422.668C5329.69 418.087 5298.96 662.782 5674.82 716.259C6361.55 813.966 7629.04 377.725 7693.28 339.611" stroke="black"/>
<path opacity="0.642857" d="M686.056 1261.8C767.093 1246.74 939.687 1220.38 1028.12 1214.63C1116.55 1208.89 1241.92 1208.25 1361.27 1171.89C1480.62 1135.52 1519.91 1098.97 1620.57 915.625C1721.23 732.28 2102.87 665.578 2258.83 647.389C2775.38 587.146 2862.93 643.483 2862.5 659.725C2860.29 742.643 2317.35 781.694 2321.39 853.493C2325.43 925.293 2663.46 938.656 2819.93 931.011C2976.4 923.365 3256.33 891.474 3529.89 776.8C3813.01 658.116 3966.91 483.679 4272.16 468.764C4577.41 453.849 4784.6 1104.22 4924.51 1097.38C5064.42 1090.55 5147.09 361.7 5225.9 357.849C5304.71 353.998 5274.67 634.347 5642.68 702.306C6315.05 826.47 7555.91 347.869 7618.79 305.241" stroke="black"/>
<path opacity="0.714286" d="M759.582 1244.04C838.903 1228.28 1007.83 1201.14 1094.36 1196C1180.9 1190.86 1303.56 1192.06 1420.41 1152.82C1537.27 1113.58 1575.78 1072.91 1674.68 867.465C1773.58 662.016 2147.12 592.522 2299.76 574.361C2805.29 514.21 2890.82 579.142 2890.36 597.47C2888.01 691.044 2356.72 726.869 2360.51 807.985C2364.3 889.101 2694.99 909.33 2848.1 903.079C3001.2 896.829 3275.16 865.085 3543.07 739.79C3820.34 610.114 3971.31 415.532 4270 403.338C4568.69 391.144 4769.95 1128.5 4906.85 1122.91C5043.75 1117.32 5126.27 295.782 5203.38 292.634C5280.49 289.486 5250.48 605.517 5610.39 687.835C6267.96 838.233 7483.08 316.813 7544.7 269.647" stroke="black"/>
<path opacity="0.785714" d="M832.64 1227.51C910.264 1211 1075.55 1183.04 1160.18 1178.47C1244.81 1173.91 1364.74 1176.88 1479.16 1134.73C1593.58 1092.58 1631.42 1047.78 1728.98 820.186C1826.54 592.593 2192.07 520.173 2341.39 501.984C2835.94 441.745 2919.29 515.242 2918.76 535.659C2916.08 639.891 2396.44 672.68 2399.81 763.114C2403.18 853.548 2726.44 880.525 2876.16 875.615C3025.89 870.704 3293.89 839.011 3556.37 702.996C3828.03 562.226 3976.45 347.44 4268.55 337.86C4560.65 328.281 4754.35 1152.58 4888.23 1148.19C5022.11 1143.8 5106.24 229.506 5181.65 227.033C5257.06 224.56 5226.39 576.293 5577.95 672.845C6220.28 849.249 7410.58 284.564 7471.02 232.835" stroke="black"/>
<path opacity="0.857143" d="M905.213 1212.18C981.16 1194.92 1142.83 1166.05 1225.56 1162.03C1308.29 1158.01 1425.46 1162.72 1537.51 1117.61C1649.56 1072.5 1686.79 1023.57 1783.44 773.792C1880.1 524.018 2237.71 448.537 2383.72 430.268C2867.32 369.76 2948.35 451.792 2947.71 474.297C2944.49 589.189 2436.52 619.131 2439.29 718.882C2442.06 818.633 2757.78 852.24 2904.11 848.616C3050.45 844.991 3312.52 813.249 3569.79 666.419C3836.06 514.455 3982.34 279.41 4267.83 272.339C4553.31 265.268 4737.8 1176.44 4868.65 1173.19C4999.5 1169.95 5087.02 162.881 5160.72 161.056C5234.42 159.23 5202.41 546.677 5545.39 657.334C6172.02 859.51 7338.41 251.125 7397.78 194.813" stroke="black"/>
<path opacity="0.928571" d="M977.284 1198.06C1051.57 1180 1209.66 1150.19 1290.48 1146.68C1371.3 1143.17 1485.69 1149.57 1595.44 1101.47C1705.19 1053.36 1741.9 1000.27 1838.07 728.282C1934.24 456.297 2284.01 377.624 2426.74 359.219C2899.44 298.262 2977.98 388.797 2977.2 413.39C2973.23 538.941 2476.95 566.225 2478.94 675.29C2480.93 784.355 2789.01 824.473 2931.94 822.08C3074.88 819.686 3331.03 787.798 3583.33 630.06C3844.44 466.806 3988.98 211.453 4267.82 206.783C4546.67 202.113 4720.32 1200.06 4848.13 1197.92C4975.93 1195.78 5068.6 95.9174 5140.59 94.7118C5212.58 93.5063 5178.54 516.67 5512.69 641.302C6123.19 869.01 7266.61 216.502 7324.98 155.586" stroke="black"/>
<path d="M1048.83 1185.14C1121.49 1166.26 1276.03 1135.43 1354.93 1132.4C1433.84 1129.37 1545.43 1137.43 1652.94 1086.29C1760.45 1035.14 1796.72 977.879 1892.84 683.658C1988.97 389.437 2330.98 307.439 2470.43 288.845C2932.28 227.26 3008.18 326.264 3007.21 352.944C3002.29 489.15 2517.72 513.967 2518.75 632.34C2519.78 750.713 2820.13 797.223 2959.65 796.006C3099.17 794.788 3349.43 762.658 3596.97 593.92C3853.17 419.283 3996.36 143.577 4268.54 141.202C4540.72 138.826 4701.9 1223.45 4826.65 1222.36C4951.41 1221.27 5050.99 28.6246 5121.26 28.0114C5191.53 27.3982 5154.8 486.274 5479.88 624.747C6073.82 877.744 7195.18 180.701 7252.66 115.16" stroke="black"/>
</g>
</svg>
