<svg width="810" height="531" viewBox="0 0 810 531" fill="none" xmlns="http://www.w3.org/2000/svg">
<rect x="1.5" y="1.5" width="806.202" height="528" rx="18.5" stroke="#5F5F5F" stroke-opacity="0.4" stroke-width="3"/>
<rect x="152.422" y="71.2544" width="105.952" height="87.9837" rx="6" fill="#5F5F5F" fill-opacity="0.4"/>
<rect x="161.717" y="125.779" width="57.6231" height="8.67445" rx="4.33722" fill="#ABABAB" fill-opacity="0.4"/>
<rect x="161.717" y="140.65" width="34.6978" height="8.67445" rx="4.33722" fill="#ABABAB" fill-opacity="0.4"/>
<circle cx="170.391" cy="89.2228" r="8.67445" fill="#ABABAB" fill-opacity="0.4"/>
<rect x="263.951" y="71.2544" width="105.952" height="87.9837" rx="6" fill="#5F5F5F" fill-opacity="0.4"/>
<rect x="273.245" y="125.779" width="57.6231" height="8.67445" rx="4.33722" fill="#ABABAB" fill-opacity="0.4"/>
<rect x="273.245" y="140.65" width="34.6978" height="8.67445" rx="4.33722" fill="#ABABAB" fill-opacity="0.4"/>
<circle cx="281.92" cy="89.2228" r="8.67445" fill="#ABABAB" fill-opacity="0.4"/>
<rect x="375.48" y="71.2544" width="105.952" height="87.9837" rx="6" fill="#5F5F5F" fill-opacity="0.4"/>
<rect x="384.774" y="125.779" width="57.6231" height="8.67445" rx="4.33722" fill="#ABABAB" fill-opacity="0.4"/>
<rect x="384.774" y="140.65" width="34.6978" height="8.67445" rx="4.33722" fill="#ABABAB" fill-opacity="0.4"/>
<circle cx="393.448" cy="89.2228" r="8.67445" fill="#ABABAB" fill-opacity="0.4"/>
<rect x="487.628" y="71.2544" width="105.952" height="87.9837" rx="6" fill="#5F5F5F" fill-opacity="0.4"/>
<rect x="496.922" y="125.779" width="57.6231" height="8.67445" rx="4.33722" fill="#ABABAB" fill-opacity="0.4"/>
<rect x="496.922" y="140.65" width="34.6978" height="8.67445" rx="4.33722" fill="#ABABAB" fill-opacity="0.4"/>
<circle cx="505.596" cy="89.2228" r="8.67445" fill="#ABABAB" fill-opacity="0.4"/>
<rect x="152.539" y="167.421" width="105.952" height="87.9837" rx="6" fill="#5F5F5F" fill-opacity="0.4"/>
<rect x="161.833" y="221.946" width="57.6231" height="8.67445" rx="4.33722" fill="#ABABAB" fill-opacity="0.4"/>
<rect x="161.833" y="236.816" width="34.6978" height="8.67445" rx="4.33722" fill="#ABABAB" fill-opacity="0.4"/>
<circle cx="170.508" cy="185.389" r="8.67445" fill="#ABABAB" fill-opacity="0.4"/>
<rect x="264.068" y="167.421" width="105.952" height="87.9837" rx="6" fill="#5F5F5F" fill-opacity="0.4"/>
<rect x="273.362" y="221.946" width="57.6231" height="8.67445" rx="4.33722" fill="#ABABAB" fill-opacity="0.4"/>
<rect x="273.362" y="236.816" width="34.6978" height="8.67445" rx="4.33722" fill="#ABABAB" fill-opacity="0.4"/>
<circle cx="282.036" cy="185.389" r="8.67445" fill="#ABABAB" fill-opacity="0.4"/>
<rect x="375.596" y="167.421" width="105.952" height="87.9837" rx="6" fill="#5F5F5F" fill-opacity="0.4"/>
<rect x="384.89" y="221.946" width="57.6231" height="8.67445" rx="4.33722" fill="#ABABAB" fill-opacity="0.4"/>
<rect x="384.89" y="236.816" width="34.6978" height="8.67445" rx="4.33722" fill="#ABABAB" fill-opacity="0.4"/>
<circle cx="393.565" cy="185.389" r="8.67445" fill="#ABABAB" fill-opacity="0.4"/>
<rect x="487.745" y="167.421" width="105.952" height="87.9837" rx="6" fill="#5F5F5F" fill-opacity="0.4"/>
<rect x="497.039" y="221.946" width="57.6231" height="8.67445" rx="4.33722" fill="#ABABAB" fill-opacity="0.4"/>
<rect x="497.039" y="236.816" width="34.6978" height="8.67445" rx="4.33722" fill="#ABABAB" fill-opacity="0.4"/>
<circle cx="505.713" cy="185.389" r="8.67445" fill="#ABABAB" fill-opacity="0.4"/>
<rect x="610.929" y="71.2544" width="182.163" height="446.114" rx="6" fill="#5F5F5F" fill-opacity="0.4"/>
<rect x="620.842" y="473.997" width="162.956" height="29.1214" rx="14.5607" fill="#ABABAB" fill-opacity="0.4"/>
<rect x="620.223" y="392.209" width="72.4936" height="8.67445" rx="4.33722" fill="#ABABAB" fill-opacity="0.4"/>
<rect x="659.877" y="250.939" width="83.0268" height="8.67445" rx="4.33722" fill="#ABABAB" fill-opacity="0.4"/>
<rect x="620.723" y="410.677" width="49.8075" height="29.3606" rx="5.5" stroke="#5F5F5F" stroke-opacity="0.4"/>
<circle cx="645.936" cy="425.357" r="8.36464" fill="#ABABAB" fill-opacity="0.4"/>
<rect x="628.278" y="446.734" width="34.6978" height="6.19603" rx="3.09802" fill="#ABABAB" fill-opacity="0.4"/>
<rect x="677.107" y="410.677" width="49.8075" height="29.3606" rx="5.5" stroke="#5F5F5F" stroke-opacity="0.4"/>
<circle cx="702.32" cy="425.357" r="8.36464" fill="#ABABAB" fill-opacity="0.4"/>
<rect x="684.662" y="446.734" width="34.6978" height="6.19603" rx="3.09802" fill="#ABABAB" fill-opacity="0.4"/>
<rect x="732.871" y="410.677" width="49.8075" height="29.3606" rx="5.5" stroke="#5F5F5F" stroke-opacity="0.4"/>
<circle cx="758.084" cy="425.357" r="8.36464" fill="#ABABAB" fill-opacity="0.4"/>
<rect x="740.426" y="446.734" width="34.6978" height="6.19603" rx="3.09802" fill="#ABABAB" fill-opacity="0.4"/>
<rect x="609.69" y="22.9253" width="47.7095" height="8.67445" rx="4.33722" fill="#ABABAB" fill-opacity="0.4"/>
<rect x="609.69" y="37.7957" width="34.6978" height="8.67445" rx="4.33722" fill="#ABABAB" fill-opacity="0.4"/>
<rect x="26.0233" y="77.4504" width="57.6231" height="8.67445" rx="4.33722" fill="#ABABAB" fill-opacity="0.4"/>
<rect x="26.0234" y="105.952" width="57.6231" height="8.67445" rx="4.33722" fill="#ABABAB" fill-opacity="0.4"/>
<rect x="26.0234" y="134.454" width="57.6231" height="8.67445" rx="4.33722" fill="#ABABAB" fill-opacity="0.4"/>
<rect x="26.0234" y="162.956" width="57.6231" height="8.67445" rx="4.33722" fill="#ABABAB" fill-opacity="0.4"/>
<rect x="26.0234" y="192.077" width="57.6231" height="8.67445" rx="4.33722" fill="#ABABAB" fill-opacity="0.4"/>
<rect x="26.0234" y="220.579" width="57.6231" height="8.67445" rx="4.33722" fill="#ABABAB" fill-opacity="0.4"/>
<rect x="26.0234" y="249.081" width="57.6231" height="8.67445" rx="4.33722" fill="#ABABAB" fill-opacity="0.4"/>
<rect x="22.3057" y="373.381" width="70.0152" height="25.4037" rx="12.7019" fill="#5F5F5F" fill-opacity="0.4"/>
<circle cx="35.6272" cy="385.083" r="8.36464" fill="#ABABAB" fill-opacity="0.4"/>
<rect x="49.5683" y="382.295" width="34.6978" height="5.57643" rx="2.78821" fill="#ABABAB" fill-opacity="0.4"/>
<rect x="22.3058" y="403.361" width="70.0152" height="25.4037" rx="12.7019" fill="#5F5F5F" fill-opacity="0.4"/>
<circle cx="35.6273" cy="416.063" r="8.36464" fill="#ABABAB" fill-opacity="0.4"/>
<rect x="49.5684" y="413.275" width="34.6978" height="5.57643" rx="2.78821" fill="#ABABAB" fill-opacity="0.4"/>
<rect x="22.3058" y="434.342" width="70.0152" height="25.4037" rx="12.7019" fill="#5F5F5F" fill-opacity="0.4"/>
<circle cx="35.6273" cy="447.043" r="8.36464" fill="#ABABAB" fill-opacity="0.4"/>
<rect x="49.5684" y="444.255" width="34.6978" height="5.57643" rx="2.78821" fill="#ABABAB" fill-opacity="0.4"/>
<line x1="153.042" y1="477.333" x2="593.58" y2="477.333" stroke="#ABABAB" stroke-opacity="0.4" stroke-width="2"/>
<line x1="298.888" y1="531" x2="298.888" y2="478.333" stroke="#ABABAB" stroke-opacity="0.4" stroke-width="2"/>
<line x1="445.734" y1="531" x2="445.734" y2="478.333" stroke="#ABABAB" stroke-opacity="0.4" stroke-width="2"/>
<rect x="153.042" y="492.584" width="24.7841" height="24.7841" rx="6" fill="#5F5F5F" fill-opacity="0.4"/>
<rect x="184.022" y="496.302" width="46.4702" height="6.19603" rx="3.09802" fill="#ABABAB" fill-opacity="0.4"/>
<rect x="184.022" y="507.455" width="34.0782" height="6.19603" rx="3.09802" fill="#ABABAB" fill-opacity="0.4"/>
<rect x="308.562" y="492.584" width="24.7841" height="24.7841" rx="6" fill="#5F5F5F" fill-opacity="0.4"/>
<rect x="339.543" y="496.302" width="46.4702" height="6.19603" rx="3.09802" fill="#ABABAB" fill-opacity="0.4"/>
<rect x="339.543" y="507.455" width="34.0782" height="6.19603" rx="3.09802" fill="#ABABAB" fill-opacity="0.4"/>
<rect x="400.264" y="492.584" width="39.6546" height="11.1529" rx="5.57643" fill="#ABABAB" fill-opacity="0.4"/>
<rect x="455.408" y="492.584" width="24.7841" height="24.7841" rx="6" fill="#5F5F5F" fill-opacity="0.4"/>
<rect x="486.388" y="496.302" width="46.4702" height="6.19603" rx="3.09802" fill="#ABABAB" fill-opacity="0.4"/>
<rect x="486.388" y="507.455" width="34.0782" height="6.19603" rx="3.09802" fill="#ABABAB" fill-opacity="0.4"/>
<rect x="547.11" y="492.584" width="39.6546" height="11.1529" rx="5.57643" fill="#ABABAB" fill-opacity="0.4"/>
<rect x="26.0233" y="506.216" width="75.5916" height="8.67445" rx="4.33722" fill="#ABABAB" fill-opacity="0.4"/>
<rect x="332.107" y="363.088" width="81.168" height="8.67445" rx="4.33722" fill="#ABABAB" fill-opacity="0.4"/>
<rect x="152.422" y="21.686" width="146.846" height="26.6429" rx="5" fill="#5F5F5F" fill-opacity="0.4"/>
<rect x="161.717" y="30.3606" width="81.168" height="9.29405" rx="4.64702" fill="#ABABAB" fill-opacity="0.4"/>
</svg>
