<svg width="419" height="411" viewBox="0 0 419 411" fill="none" xmlns="http://www.w3.org/2000/svg">
<rect x="75.9158" y="1.5" width="228.044" height="407.984" rx="18.5" stroke="#5F5F5F" stroke-opacity="0.4" stroke-width="3"/>
<rect x="82.3331" y="9.35693" width="215.209" height="390.831" rx="5" fill="#5F5F5F" fill-opacity="0.4"/>
<rect x="158.628" y="63.3391" width="62.8111" height="7.19211" rx="3.59606" fill="#ABABAB" fill-opacity="0.4"/>
<circle cx="175.542" cy="98.9673" r="5.39822" fill="#ABABAB" fill-opacity="0.4"/>
<circle cx="148.191" cy="98.9673" r="5.39822" fill="#ABABAB" fill-opacity="0.4"/>
<circle cx="202.893" cy="98.9673" r="5.39822" fill="#666666" fill-opacity="0.4"/>
<circle cx="230.244" cy="98.9673" r="5.39822" fill="#666666" fill-opacity="0.4"/>
<rect x="166.545" y="155.469" width="46.7846" height="46.7846" rx="5" fill="#ABABAB" fill-opacity="0.4"/>
<rect x="112.563" y="155.469" width="46.7846" height="46.7846" rx="5" fill="#ABABAB" fill-opacity="0.4"/>
<rect x="220.528" y="155.469" width="46.7846" height="46.7846" rx="5" fill="#ABABAB" fill-opacity="0.4"/>
<rect x="166.545" y="208.731" width="46.7846" height="46.7846" rx="5" fill="#ABABAB" fill-opacity="0.4"/>
<rect x="112.563" y="208.731" width="46.7846" height="46.7846" rx="5" fill="#ABABAB" fill-opacity="0.4"/>
<rect x="220.528" y="208.731" width="46.7846" height="46.7846" rx="5" fill="#ABABAB" fill-opacity="0.4"/>
<rect x="166.545" y="261.994" width="46.7846" height="46.7846" rx="5" fill="#ABABAB" fill-opacity="0.4"/>
<rect x="166.545" y="315.976" width="46.7846" height="46.7846" rx="5" fill="#ABABAB" fill-opacity="0.4"/>
<rect x="112.563" y="261.994" width="46.7846" height="46.7846" rx="5" fill="#ABABAB" fill-opacity="0.4"/>
<rect x="220.528" y="261.994" width="46.7846" height="46.7846" rx="5" fill="#ABABAB" fill-opacity="0.4"/>
<path d="M112.638 158.807L73.5289 102.954" stroke="#5F5F5F" stroke-opacity="0.4" stroke-width="1.7" stroke-linecap="round"/>
<path d="M72.9763 102.207H1.00006" stroke="#5F5F5F" stroke-opacity="0.4" stroke-width="1.7" stroke-linecap="round"/>
<path d="M4.17871 84.2568V86.7314C4.17871 87.0186 4.1696 87.3034 4.15137 87.5859C4.1377 87.8685 4.11947 88.0872 4.09668 88.2422H4.17871C4.37923 87.9277 4.65267 87.6611 4.99902 87.4424C5.34538 87.2191 5.79427 87.1074 6.3457 87.1074C7.20247 87.1074 7.89746 87.4424 8.43066 88.1123C8.96387 88.7822 9.23047 89.7643 9.23047 91.0586C9.23047 91.929 9.10742 92.6605 8.86133 93.2529C8.61523 93.8408 8.27116 94.2852 7.8291 94.5859C7.38704 94.8822 6.87435 95.0303 6.29102 95.0303C5.73047 95.0303 5.28841 94.93 4.96484 94.7295C4.64128 94.529 4.37923 94.3034 4.17871 94.0527H4.03516L3.68652 94.8936H2.09375V84.2568H4.17871ZM5.67578 88.7754C5.3112 88.7754 5.02181 88.8506 4.80762 89.001C4.59342 89.1514 4.4362 89.377 4.33594 89.6777C4.24023 89.9785 4.18783 90.359 4.17871 90.8193V91.0449C4.17871 91.7878 4.28809 92.3574 4.50684 92.7539C4.72559 93.1458 5.12435 93.3418 5.70312 93.3418C6.13151 93.3418 6.47103 93.1436 6.72168 92.7471C6.97689 92.3506 7.10449 91.7786 7.10449 91.0312C7.10449 90.2839 6.97689 89.721 6.72168 89.3428C6.46647 88.9645 6.11784 88.7754 5.67578 88.7754ZM17.9668 87.251V94.8936H16.3672L16.0869 93.916H15.9775C15.8135 94.1758 15.6084 94.3877 15.3623 94.5518C15.1162 94.7158 14.8451 94.8366 14.5488 94.9141C14.2526 94.9915 13.945 95.0303 13.626 95.0303C13.0791 95.0303 12.6029 94.9346 12.1973 94.7432C11.7917 94.5472 11.4749 94.2441 11.2471 93.834C11.0238 93.4238 10.9121 92.8906 10.9121 92.2344V87.251H12.9971V91.7148C12.9971 92.2617 13.0951 92.6742 13.291 92.9521C13.487 93.2301 13.7992 93.3691 14.2275 93.3691C14.6514 93.3691 14.984 93.2734 15.2256 93.082C15.4671 92.8861 15.6357 92.6012 15.7314 92.2275C15.8317 91.8493 15.8818 91.389 15.8818 90.8467V87.251H17.9668ZM23.374 93.3691C23.6019 93.3691 23.8229 93.3464 24.0371 93.3008C24.2559 93.2552 24.4723 93.1982 24.6865 93.1299V94.6816C24.4632 94.7819 24.1852 94.8639 23.8525 94.9277C23.5244 94.9961 23.1644 95.0303 22.7725 95.0303C22.3167 95.0303 21.9066 94.9574 21.542 94.8115C21.182 94.6611 20.8971 94.4036 20.6875 94.0391C20.4824 93.6699 20.3799 93.1572 20.3799 92.501V88.8164H19.3818V87.9346L20.5303 87.2373L21.1318 85.624H22.4648V87.251H24.6045V88.8164H22.4648V92.501C22.4648 92.7926 22.5469 93.0114 22.7109 93.1572C22.8796 93.2985 23.1006 93.3691 23.374 93.3691ZM29.458 93.3691C29.6859 93.3691 29.9069 93.3464 30.1211 93.3008C30.3398 93.2552 30.5563 93.1982 30.7705 93.1299V94.6816C30.5472 94.7819 30.2692 94.8639 29.9365 94.9277C29.6084 94.9961 29.2484 95.0303 28.8564 95.0303C28.4007 95.0303 27.9906 94.9574 27.626 94.8115C27.266 94.6611 26.9811 94.4036 26.7715 94.0391C26.5664 93.6699 26.4639 93.1572 26.4639 92.501V88.8164H25.4658V87.9346L26.6143 87.2373L27.2158 85.624H28.5488V87.251H30.6885V88.8164H28.5488V92.501C28.5488 92.7926 28.6309 93.0114 28.7949 93.1572C28.9635 93.2985 29.1846 93.3691 29.458 93.3691ZM39.2676 91.0586C39.2676 91.6966 39.181 92.2617 39.0078 92.7539C38.8392 93.2461 38.5908 93.6631 38.2627 94.0049C37.9391 94.3421 37.5472 94.5973 37.0869 94.7705C36.6312 94.9437 36.1162 95.0303 35.542 95.0303C35.0042 95.0303 34.5098 94.9437 34.0586 94.7705C33.612 94.5973 33.2223 94.3421 32.8896 94.0049C32.5615 93.6631 32.3063 93.2461 32.124 92.7539C31.9463 92.2617 31.8574 91.6966 31.8574 91.0586C31.8574 90.2109 32.0078 89.4932 32.3086 88.9053C32.6094 88.3174 33.0378 87.8708 33.5938 87.5654C34.1497 87.2601 34.8128 87.1074 35.583 87.1074C36.2985 87.1074 36.932 87.2601 37.4834 87.5654C38.0394 87.8708 38.4746 88.3174 38.7891 88.9053C39.1081 89.4932 39.2676 90.2109 39.2676 91.0586ZM33.9834 91.0586C33.9834 91.5599 34.0381 91.9814 34.1475 92.3232C34.2568 92.665 34.4277 92.9225 34.6602 93.0957C34.8926 93.2689 35.1956 93.3555 35.5693 93.3555C35.9385 93.3555 36.237 93.2689 36.4648 93.0957C36.6973 92.9225 36.8659 92.665 36.9707 92.3232C37.0801 91.9814 37.1348 91.5599 37.1348 91.0586C37.1348 90.5527 37.0801 90.1335 36.9707 89.8008C36.8659 89.4635 36.6973 89.2106 36.4648 89.042C36.2324 88.8734 35.9294 88.7891 35.5557 88.7891C35.0042 88.7891 34.6032 88.9782 34.3525 89.3564C34.1064 89.7347 33.9834 90.3021 33.9834 91.0586ZM45.3311 87.1074C46.1468 87.1074 46.8031 87.3307 47.2998 87.7773C47.7965 88.2194 48.0449 88.9303 48.0449 89.9102V94.8936H45.96V90.4297C45.96 89.8828 45.8597 89.4704 45.6592 89.1924C45.4632 88.9144 45.1533 88.7754 44.7295 88.7754C44.0915 88.7754 43.6562 88.9919 43.4238 89.4248C43.1914 89.8577 43.0752 90.4821 43.0752 91.2979V94.8936H40.9902V87.251H42.583L42.8633 88.2285H42.9795C43.1436 87.9642 43.3464 87.75 43.5879 87.5859C43.834 87.4219 44.1051 87.3011 44.4014 87.2236C44.7021 87.1462 45.012 87.1074 45.3311 87.1074Z" fill="#5F5F5F" fill-opacity="0.4"/>
<path d="M305.46 268.931L344.553 213.078" stroke="#5F5F5F" stroke-opacity="0.4" stroke-width="1.7" stroke-linecap="round"/>
<path d="M345.105 212.33H417.081" stroke="#5F5F5F" stroke-opacity="0.4" stroke-width="1.7" stroke-linecap="round"/>
<path d="M373.179 196.363V198.838C373.179 199.125 373.17 199.41 373.151 199.692C373.138 199.975 373.119 200.194 373.097 200.349H373.179C373.379 200.034 373.653 199.768 373.999 199.549C374.345 199.326 374.794 199.214 375.346 199.214C376.202 199.214 376.897 199.549 377.431 200.219C377.964 200.889 378.23 201.871 378.23 203.165C378.23 204.035 378.107 204.767 377.861 205.359C377.615 205.947 377.271 206.392 376.829 206.692C376.387 206.989 375.874 207.137 375.291 207.137C374.73 207.137 374.288 207.036 373.965 206.836C373.641 206.635 373.379 206.41 373.179 206.159H373.035L372.687 207H371.094V196.363H373.179ZM374.676 200.882C374.311 200.882 374.022 200.957 373.808 201.107C373.593 201.258 373.436 201.483 373.336 201.784C373.24 202.085 373.188 202.465 373.179 202.926V203.151C373.179 203.894 373.288 204.464 373.507 204.86C373.726 205.252 374.124 205.448 374.703 205.448C375.132 205.448 375.471 205.25 375.722 204.854C375.977 204.457 376.104 203.885 376.104 203.138C376.104 202.39 375.977 201.827 375.722 201.449C375.466 201.071 375.118 200.882 374.676 200.882ZM386.898 203.165C386.898 203.803 386.812 204.368 386.639 204.86C386.47 205.353 386.222 205.77 385.894 206.111C385.57 206.449 385.178 206.704 384.718 206.877C384.262 207.05 383.747 207.137 383.173 207.137C382.635 207.137 382.141 207.05 381.689 206.877C381.243 206.704 380.853 206.449 380.521 206.111C380.192 205.77 379.937 205.353 379.755 204.86C379.577 204.368 379.488 203.803 379.488 203.165C379.488 202.317 379.639 201.6 379.939 201.012C380.24 200.424 380.669 199.977 381.225 199.672C381.781 199.367 382.444 199.214 383.214 199.214C383.929 199.214 384.563 199.367 385.114 199.672C385.67 199.977 386.105 200.424 386.42 201.012C386.739 201.6 386.898 202.317 386.898 203.165ZM381.614 203.165C381.614 203.666 381.669 204.088 381.778 204.43C381.888 204.771 382.059 205.029 382.291 205.202C382.523 205.375 382.826 205.462 383.2 205.462C383.569 205.462 383.868 205.375 384.096 205.202C384.328 205.029 384.497 204.771 384.602 204.43C384.711 204.088 384.766 203.666 384.766 203.165C384.766 202.659 384.711 202.24 384.602 201.907C384.497 201.57 384.328 201.317 384.096 201.148C383.863 200.98 383.56 200.896 383.187 200.896C382.635 200.896 382.234 201.085 381.983 201.463C381.737 201.841 381.614 202.409 381.614 203.165ZM392.887 199.214C392.992 199.214 393.112 199.221 393.249 199.234C393.39 199.243 393.504 199.257 393.591 199.275L393.434 201.23C393.365 201.208 393.267 201.192 393.14 201.183C393.017 201.169 392.91 201.162 392.818 201.162C392.549 201.162 392.287 201.196 392.032 201.265C391.782 201.333 391.556 201.445 391.355 201.6C391.155 201.75 390.995 201.951 390.877 202.201C390.763 202.447 390.706 202.75 390.706 203.11V207H388.621V199.357H390.2L390.508 200.643H390.61C390.761 200.383 390.948 200.146 391.171 199.932C391.399 199.713 391.656 199.54 391.943 199.412C392.235 199.28 392.549 199.214 392.887 199.214ZM397.398 207.137C396.546 207.137 395.851 206.804 395.313 206.139C394.78 205.469 394.514 204.487 394.514 203.192C394.514 201.884 394.785 200.896 395.327 200.226C395.869 199.551 396.578 199.214 397.453 199.214C397.818 199.214 398.139 199.264 398.417 199.364C398.695 199.465 398.934 199.599 399.135 199.768C399.34 199.936 399.513 200.125 399.654 200.335H399.723C399.695 200.189 399.661 199.975 399.62 199.692C399.584 199.405 399.565 199.111 399.565 198.811V196.363H401.657V207H400.058L399.654 206.009H399.565C399.433 206.218 399.267 206.41 399.066 206.583C398.87 206.752 398.636 206.886 398.362 206.986C398.089 207.087 397.768 207.137 397.398 207.137ZM398.13 205.476C398.7 205.476 399.101 205.307 399.333 204.97C399.57 204.628 399.695 204.115 399.709 203.432V203.206C399.709 202.463 399.595 201.896 399.367 201.504C399.139 201.107 398.715 200.909 398.096 200.909C397.635 200.909 397.275 201.107 397.016 201.504C396.756 201.9 396.626 202.472 396.626 203.22C396.626 203.967 396.756 204.53 397.016 204.908C397.28 205.286 397.651 205.476 398.13 205.476ZM406.989 199.214C407.696 199.214 408.304 199.351 408.814 199.624C409.325 199.893 409.719 200.285 409.997 200.8C410.275 201.315 410.414 201.944 410.414 202.687V203.698H405.485C405.508 204.286 405.684 204.749 406.012 205.086C406.344 205.419 406.805 205.585 407.393 205.585C407.88 205.585 408.327 205.535 408.732 205.435C409.138 205.334 409.555 205.184 409.983 204.983V206.597C409.605 206.784 409.209 206.92 408.794 207.007C408.384 207.093 407.885 207.137 407.297 207.137C406.531 207.137 405.852 206.995 405.26 206.713C404.672 206.43 404.209 206 403.872 205.421C403.539 204.842 403.373 204.113 403.373 203.233C403.373 202.34 403.523 201.597 403.824 201.005C404.13 200.408 404.553 199.961 405.096 199.665C405.638 199.364 406.269 199.214 406.989 199.214ZM407.003 200.697C406.597 200.697 406.26 200.827 405.991 201.087C405.727 201.347 405.574 201.755 405.533 202.311H408.459C408.454 202.001 408.397 201.725 408.288 201.483C408.183 201.242 408.024 201.05 407.81 200.909C407.6 200.768 407.331 200.697 407.003 200.697ZM416.375 199.214C416.48 199.214 416.601 199.221 416.737 199.234C416.879 199.243 416.993 199.257 417.079 199.275L416.922 201.23C416.854 201.208 416.756 201.192 416.628 201.183C416.505 201.169 416.398 201.162 416.307 201.162C416.038 201.162 415.776 201.196 415.521 201.265C415.27 201.333 415.044 201.445 414.844 201.6C414.643 201.75 414.484 201.951 414.365 202.201C414.251 202.447 414.194 202.75 414.194 203.11V207H412.109V199.357H413.688L413.996 200.643H414.099C414.249 200.383 414.436 200.146 414.659 199.932C414.887 199.713 415.145 199.54 415.432 199.412C415.723 199.28 416.038 199.214 416.375 199.214Z" fill="#5F5F5F" fill-opacity="0.4"/>
</svg>
